<svg id="Layer_1" enable-background="new 0 0 512 512" height="512" viewBox="0 0 512 512" width="512" xmlns="http://www.w3.org/2000/svg"><g><path d="m175.034 330.52c-1.289.356-46.278 10.726-69.079 13.487v42.155h69.079z"/><path d="m366.934 220.15v18.494c0 8.282 6.714 14.995 14.995 14.995s14.995-6.714 14.995-14.995v-30.177c11.775-4.503 23.106-8.745 33.582-12.61v17.358c0 8.282 6.714 14.995 14.995 14.995s14.995-6.714 14.995-14.995v-28.257c18.92-6.773 31.056-10.92 31.452-11.055 6.075-2.07 10.16-7.776 10.16-14.194 0-128.658-74.463-146.658-77.633-147.361-6.96-1.545-14.037 2.02-16.941 8.527-10.019 22.443-28.897 38.056-56.11 46.404-9.577 2.938-18.618 4.448-25.723 5.219-.346-31.221-8.223-52.749-23.497-64.104-18.432-13.702-38.829-6.707-41.095-5.863-4.062 1.511-7.272 4.707-8.801 8.763-8.541 22.65-30.478 54.569-64.08 93.437l152.595 125.994c8.666-3.583 17.416-7.121 26.111-10.575z"/><path d="m309.766 243.974-141.499-116.832c-3.165 3.456-20.279 21.468-25.734 26.705l130.09 107.413c2.416-1.16 26.634-12.648 37.143-17.286z"/><path d="m211.702 287.904v16.35c0 8.282 6.714 14.995 14.995 14.995 8.282 0 14.995-6.714 14.995-14.995v-28.718c.243-.106-121.785-101.476-121.785-101.476-17.5 14.528-36.014 27.47-55.388 38.696-31.114 18.029-49.174 39.495-53.682 63.802-3.619 19.513 3.347 33.368 4.153 34.884 2.604 4.895 7.695 7.953 13.239 7.953 5.018 0 9.93-.062 14.789-.157v16.501c0 8.282 6.714 14.995 14.995 14.995s14.995-6.714 14.995-14.995v-17.75c77.813-4.613 131.015-27.148 138.694-30.085z"/><path d="m487.202 415.153h-458.883c-8.282 0-14.995 6.714-14.995 14.995v66.857c0 8.282 6.714 14.995 14.995 14.995h458.883c8.282 0 14.995-6.714 14.995-14.995v-66.857c0-8.282-6.714-14.995-14.995-14.995z"/></g></svg>